<svg id="visual" viewBox="0 0 900 450" width="900" height="450" xmlns="http://www.w3.org/2000/svg" xmlns:xlink="http://www.w3.org/1999/xlink" version="1.1"><rect x="0" y="0" width="900" height="450" fill="#12181B"></rect><path d="M717 450L691.5 431.3C666 412.7 615 375.3 596.5 337.8C578 300.3 592 262.7 608 225.2C624 187.7 642 150.3 642 112.8C642 75.3 624 37.7 615 18.8L606 0L900 0L900 18.8C900 37.7 900 75.3 900 112.8C900 150.3 900 187.7 900 225.2C900 262.7 900 300.3 900 337.8C900 375.3 900 412.7 900 431.3L900 450Z" fill="#0066ff" stroke-linecap="round" stroke-linejoin="miter"></path></svg>