<svg id="visual" viewBox="0 0 900 450" width="900" height="450" xmlns="http://www.w3.org/2000/svg" xmlns:xlink="http://www.w3.org/1999/xlink" version="1.1"><rect x="0" y="0" width="900" height="450" fill="#12181B"></rect><path d="M627 450L609.8 431.3C592.7 412.7 558.3 375.3 562.5 337.8C566.7 300.3 609.3 262.7 621 225.2C632.7 187.7 613.3 150.3 621.5 112.8C629.7 75.3 665.3 37.7 683.2 18.8L701 0L900 0L900 18.8C900 37.7 900 75.3 900 112.8C900 150.3 900 187.7 900 225.2C900 262.7 900 300.3 900 337.8C900 375.3 900 412.7 900 431.3L900 450Z" fill="#FE596E" stroke-linecap="round" stroke-linejoin="miter"></path></svg>