<svg id="visual" viewBox="0 0 900 450" width="900" height="450" xmlns="http://www.w3.org/2000/svg" xmlns:xlink="http://www.w3.org/1999/xlink" version="1.1"><rect x="0" y="0" width="900" height="450" fill="#12181B"></rect><path d="M0 121L25 130.7C50 140.3 100 159.7 150 164.5C200 169.3 250 159.7 300 144.2C350 128.7 400 107.3 450 115.5C500 123.7 550 161.3 600 162.3C650 163.3 700 127.7 750 117.5C800 107.3 850 122.7 875 130.3L900 138L900 0L875 0C850 0 800 0 750 0C700 0 650 0 600 0C550 0 500 0 450 0C400 0 350 0 300 0C250 0 200 0 150 0C100 0 50 0 25 0L0 0Z" fill="#00ffb2" stroke-linecap="round" stroke-linejoin="miter"></path></svg>