<svg id="visual" viewBox="0 0 900 450" width="900" height="450" xmlns="http://www.w3.org/2000/svg" xmlns:xlink="http://www.w3.org/1999/xlink" version="1.1"><rect x="0" y="0" width="900" height="450" fill="#12181B"></rect><path d="M0 146L37.5 159.3C75 172.7 150 199.3 225 199.5C300 199.7 375 173.3 450 151.7C525 130 600 113 675 116.8C750 120.7 825 145.3 862.5 157.7L900 170L900 0L862.5 0C825 0 750 0 675 0C600 0 525 0 450 0C375 0 300 0 225 0C150 0 75 0 37.5 0L0 0Z" fill="#0066ff" stroke-linecap="round" stroke-linejoin="miter"></path></svg>