<svg id="Layer_1" data-name="Layer 1" xmlns="http://www.w3.org/2000/svg" viewBox="0 0 512 512"><defs><style>.cls-1{fill:#f5ceb7;}.cls-2{fill:#908fe2;}.cls-3{fill:#dbb4a1;}.cls-4{fill:#f44747;}</style></defs><title>diary-flat</title><rect class="cls-1" x="64" y="51.2" width="384" height="460.8" rx="64" ry="64"/><path class="cls-2" d="M300.29,25.6a51.12,51.12,0,0,0-88.59,0h-15A30.34,30.34,0,0,0,166.4,55.94V72.06a30.34,30.34,0,0,0,30.34,30.34H315.26A30.34,30.34,0,0,0,345.6,72.06V55.94A30.34,30.34,0,0,0,315.26,25.6Z"/><path class="cls-3" d="M371.2,179.2h-64a12.8,12.8,0,0,1,0-25.6h64a12.8,12.8,0,1,1,0,25.6Z"/><path class="cls-3" d="M371.2,230.4h-64a12.8,12.8,0,0,1,0-25.6h64a12.8,12.8,0,1,1,0,25.6Z"/><path class="cls-3" d="M371.2,281.6h-64a12.8,12.8,0,0,1,0-25.6h64a12.8,12.8,0,0,1,0,25.6Z"/><path class="cls-3" d="M371.2,332.8H140.8a12.8,12.8,0,1,1,0-25.6H371.2a12.8,12.8,0,1,1,0,25.6Z"/><path class="cls-3" d="M371.2,384H140.8a12.8,12.8,0,0,1,0-25.6H371.2a12.8,12.8,0,0,1,0,25.6Z"/><path class="cls-3" d="M371.2,435.2H140.8a12.8,12.8,0,0,1,0-25.6H371.2a12.8,12.8,0,1,1,0,25.6Z"/><path class="cls-4" d="M256,185.6v64a32,32,0,0,1-32,32H160a32,32,0,0,1-32-32v-64a32,32,0,0,1,32-32h64A32,32,0,0,1,256,185.6Z"/></svg>